<svg xmlns="http://www.w3.org/2000/svg" width="798" height="709" xmlns:xlink="http://www.w3.org/1999/xlink" joint-selector="svg" id="v-2" class="waiting"><defs joint-selector="defs" class="waiting"><marker id="v-21429980022" orient="auto" overflow="visible" markerUnits="userSpaceOnUse" class="waiting"><path id="v-185" stroke="black" fill="none" transform="rotate(180)" d="m 10,-6 l -10,6 10,6" stroke-width="1.2" class="waiting"/></marker><marker id="v-2-933205445" orient="auto" overflow="visible" markerUnits="userSpaceOnUse" class="waiting"><path id="v-203" stroke="black" fill="black" transform="rotate(180)" d="m 12,-6 l -12,6 12,6 z" stroke-width="1.2" class="waiting"/></marker></defs><g joint-selector="layers" class="joint-layers waiting" transform="matrix(1,0,0,1,-221,-24)"><g joint-selector="back" class="joint-back-layer waiting"/><g joint-selector="cells" class="joint-cells-layer joint-viewport waiting"><g model-id="2a8c81f9-fc22-4639-b712-7755fafb04e3" data-type="Container" id="j_38" class="joint-cell joint-type-container joint-element joint-theme-default waiting" transform="translate(401,406)"><g id="v-237" class="waiting"><rect class="boundary waiting" id="v-240" fill="rgb(242,242,242)" height="120" rx="100" ry="40" stroke="black" stroke-dasharray="10,5,4,4" stroke-width="2" width="200" display="none" style=""/><circle class="element actorSymbol waiting" id="v-238" cx="40" cy="40" fill="rgb(205,254,205)" r="40" stroke="black" stroke-width="2" transform="translate(-20, -20)" style=""/><path class="actorDecorator waiting" id="v-241" d="m -11 45 q 30 15 62 0" fill="none" stroke="black" stroke-width="1.5" style=""/><text class="content waiting" id="v-239" font-size="12" xml:space="preserve" y="0.8em" fill="#000000" font-family="Arial, helvetica, sans-serif" text-anchor="middle" transform="matrix(1,0,0,1,20,8.4)"><tspan dy="0" class="v-line waiting">Pessoa que</tspan><tspan dy="1em" x="0" class="v-line waiting">perdeu</tspan></text></g></g><g model-id="f3d58dd6-b6d5-4277-aa0a-cb90964e411b" data-type="Container" id="j_37" class="joint-cell joint-type-container joint-element joint-theme-default waiting" transform="translate(837,407)"><g id="v-226" class="waiting"><rect class="boundary waiting" id="v-229" fill="rgb(242,242,242)" height="120" rx="100" ry="40" stroke="black" stroke-dasharray="10,5,4,4" stroke-width="2" width="200" display="none"/><circle class="element actorSymbol waiting" id="v-227" cx="40" cy="40" fill="rgb(205,254,205)" r="40" stroke="black" stroke-width="2" transform="translate(-20, -20)"/><path class="actorDecorator waiting" id="v-230" d="m -11 45 q 30 15 62 0" fill="none" stroke="black" stroke-width="1.5"/><text class="content waiting" id="v-228" font-size="12" xml:space="preserve" y="0.8em" fill="#000000" font-family="Arial, helvetica, sans-serif" text-anchor="middle" transform="matrix(1,0,0,1,20,8.4)"><tspan dy="0" class="v-line waiting">Pessoa que</tspan><tspan dy="1em" x="0" class="v-line waiting">achou</tspan></text></g></g><g model-id="0ed5c6e9-e223-412e-83f2-caca2d184416" data-type="Container" id="j_36" class="joint-cell joint-type-container joint-element joint-theme-default waiting" transform="translate(599,196)"><g id="v-215" class="waiting"><rect class="boundary waiting" id="v-218" fill="rgb(242,242,242)" height="120" rx="100" ry="40" stroke="black" stroke-dasharray="10,5,4,4" stroke-width="2" width="200" display="none" style=""/><circle class="element actorSymbol waiting" id="v-216" cx="40" cy="40" fill="rgb(205,254,205)" r="40" stroke="black" stroke-width="2" transform="translate(-20, -20)" style=""/><path class="actorDecorator waiting" id="v-219" d="m -11 -5 62 0" fill="none" stroke="black" stroke-width="1.5" style=""/><text class="content waiting" id="v-217" font-size="12" xml:space="preserve" y="0.8em" fill="#000000" font-family="Arial, helvetica, sans-serif" text-anchor="middle" transform="matrix(1,0,0,1,20,14.4)"><tspan dy="0" class="v-line waiting">CIn</tspan></text></g></g><g model-id="14e72b0c-4d49-41e7-b854-2628f8094612" data-type="DependencyLink" id="j_77" class="joint-cell joint-type-dependencylink joint-link joint-theme-default waiting"><path joint-selector="connection-wrap" id="v-428" fill="none" stroke="rgba(190, 190, 190, 0)" stroke-linecap="round" stroke-width="30" d="M 821.99 467 L 650.68 662.7" class="c-connection-wrap waiting"/><path joint-selector="line" id="v-427" fill="none" stroke="black" stroke-width="1" d="M 821.99 467 L 650.68 662.7" class="waiting"/><path joint-selector="label" id="v-429" d="m 0,-10 l 0,20 4,0 c 10,0, 10 -20, 0,-20 l -4,0" fill="white" stroke="black" stroke-width="2" transform="matrix(-0.6586625686737049,0.7524384497273893,-0.7524384497273893,-0.6586625686737049,736.3,564.8)" class="waiting"/></g><g model-id="5ceb634b-8b34-4653-98a0-aac1d2c6bcb7" data-type="DependencyLink" id="j_76" class="joint-cell joint-type-dependencylink joint-link joint-theme-default waiting"><path joint-selector="connection-wrap" class="c-connection-wrap waiting" id="v-425" fill="none" stroke="transparent" stroke-linecap="round" stroke-width="20" d="M 627.93 662.7 L 455.97 466"/><path joint-selector="line" id="v-424" fill="none" stroke="black" stroke-width="1" d="M 627.93 662.7 L 455.97 466" class="waiting"/><path joint-selector="label" id="v-426" d="m 0,-10 l 0,20 4,0 c 10,0, 10 -20, 0,-20 l -4,0" fill="white" stroke="black" stroke-width="2" transform="matrix(-0.6581738876354922,-0.7528659466563635,0.7528659466563635,-0.6581738876354922,542,564.3)" class="waiting"/></g><g model-id="54400469-4298-4952-aeec-6d304de7fda9" data-type="DependencyLink" id="j_74" class="joint-cell joint-type-dependencylink joint-link joint-theme-default waiting"><path joint-selector="connection-wrap" id="v-414" fill="none" stroke="transparent" stroke-linecap="round" stroke-width="20" d="M 579 204.48 L 318.86 129.57" class="c-connection-wrap waiting"/><path joint-selector="line" id="v-413" fill="none" stroke="black" stroke-width="1" d="M 579 204.48 L 318.86 129.57" class="waiting"/><path joint-selector="label" id="v-415" d="m 0,-10 l 0,20 4,0 c 10,0, 10 -20, 0,-20 l -4,0" fill="white" stroke="black" stroke-width="2" transform="matrix(-0.9609517549692373,-0.2767159637996024,0.2767159637996024,-0.9609517549692373,448.9,167)" class="waiting"/></g><g model-id="6a9d7c97-28a5-41d7-8a0d-5b1affc6105f" data-type="DependencyLink" id="j_73" class="joint-cell joint-type-dependencylink joint-link joint-theme-default waiting"><path joint-selector="connection-wrap" class="c-connection-wrap waiting" id="v-411" fill="none" stroke="rgba(190, 190, 190, 0)" stroke-linecap="round" stroke-width="30" d="M 284.67 131 L 402.51 386"/><path joint-selector="line" id="v-410" fill="none" stroke="black" stroke-width="1" d="M 284.67 131 L 402.51 386" class="waiting"/><path joint-selector="label" id="v-412" d="m 0,-10 l 0,20 4,0 c 10,0, 10 -20, 0,-20 l -4,0" fill="white" stroke="black" stroke-width="2" transform="matrix(0.41949153659098865,0.9077592471181615,-0.9077592471181615,0.41949153659098865,343.6,258.5)" class="waiting"/></g><g model-id="047556d4-22dd-41ec-b1a1-2e2acd6e653b" data-type="DependencyLink" id="j_71" class="joint-cell joint-type-dependencylink joint-link joint-theme-default waiting"><path joint-selector="connection-wrap" id="v-400" fill="none" stroke="rgba(190, 190, 190, 0)" stroke-linecap="round" stroke-width="30" d="M 579 225.45 L 528.81 237.31" class="c-connection-wrap waiting"/><path joint-selector="line" id="v-399" fill="none" stroke="black" stroke-width="1" d="M 579 225.45 L 528.81 237.31" class="waiting"/><path joint-selector="label" id="v-401" d="m 0,-10 l 0,20 4,0 c 10,0, 10 -20, 0,-20 l -4,0" fill="white" stroke="black" stroke-width="2" transform="matrix(-0.9731980333898145,0.22996866700965488,-0.22996866700965488,-0.9731980333898145,553.9,231.4)" class="waiting"/></g><g model-id="ff214186-e0e8-4fa2-8095-4dc1d950a23e" data-type="DependencyLink" id="j_70" class="joint-cell joint-type-dependencylink joint-link joint-theme-default waiting"><path joint-selector="connection-wrap" class="c-connection-wrap waiting" id="v-397" fill="none" stroke="rgba(190, 190, 190, 0)" stroke-linecap="round" stroke-width="30" d="M 470.03 268.8 L 433.48 386"/><path joint-selector="line" id="v-396" fill="none" stroke="black" stroke-width="1" d="M 470.03 268.8 L 433.48 386" class="waiting"/><path joint-selector="label" id="v-398" d="m 0,-10 l 0,20 4,0 c 10,0, 10 -20, 0,-20 l -4,0" fill="white" stroke="black" stroke-width="2" transform="matrix(-0.29771842198330684,0.9546537284333884,-0.9546537284333884,-0.29771842198330684,451.8,327.4)" class="waiting"/></g><g model-id="64b7a18d-d72c-4d9b-a66a-01c31f2cb894" data-type="DependencyLink" id="j_68" class="joint-cell joint-type-dependencylink joint-link joint-theme-default waiting"><path joint-selector="connection-wrap" id="v-386" fill="none" stroke="transparent" stroke-linecap="round" stroke-width="20" d="M 461 457.67 C 522.375 507.05750000000006 583.75 556.445 613 578 C 642.25 599.555 639.375 593.2774999999999 636.5 587" class="c-connection-wrap waiting"/><path joint-selector="line" id="v-385" fill="none" stroke="black" stroke-width="1" d="M 461 457.67 C 522.375 507.05750000000006 583.75 556.445 613 578 C 642.25 599.555 639.375 593.2774999999999 636.5 587" class="waiting"/><path joint-selector="label" id="v-387" d="m 0,-10 l 0,20 4,0 c 10,0, 10 -20, 0,-20 l -4,0" fill="white" stroke="black" stroke-width="2" transform="matrix(0.7827853085909013,0.622291861311272,-0.622291861311272,0.7827853085909013,550.6,529.5)" class="waiting"/></g><g model-id="d2932dd1-423c-4591-adb4-8808dcdd35a0" data-type="DependencyLink" id="j_67" class="joint-cell joint-type-dependencylink joint-link joint-theme-default waiting"><path joint-selector="connection-wrap" class="c-connection-wrap waiting" id="v-383" fill="none" stroke="rgba(190, 190, 190, 0)" stroke-linecap="round" stroke-width="30" d="M 654.42 574 L 817 456.02"/><path joint-selector="line" id="v-382" fill="none" stroke="black" stroke-width="1" d="M 654.42 574 L 817 456.02" class="waiting"/><path joint-selector="label" id="v-384" d="m 0,-10 l 0,20 4,0 c 10,0, 10 -20, 0,-20 l -4,0" fill="white" stroke="black" stroke-width="2" transform="matrix(0.8093512258126319,-0.5873249469208592,0.5873249469208592,0.8093512258126319,735.7,515)" class="waiting"/></g><g model-id="834c4a42-f83c-43ea-90db-0c0808c2e8a4" data-type="DependencyLink" id="j_65" class="joint-cell joint-type-dependencylink joint-link joint-theme-default waiting"><path joint-selector="connection-wrap" id="v-372" fill="none" stroke="rgba(190, 190, 190, 0)" stroke-linecap="round" stroke-width="30" d="M 327.34 194.62 L 579 213.07" class="c-connection-wrap waiting"/><path joint-selector="line" id="v-371" fill="none" stroke="black" stroke-width="1" d="M 327.34 194.62 L 579 213.07" class="waiting"/><path joint-selector="label" id="v-373" d="m 0,-10 l 0,20 4,0 c 10,0, 10 -20, 0,-20 l -4,0" fill="white" stroke="black" stroke-width="2" transform="matrix(0.9973233720817164,0.07311697135107813,-0.07311697135107813,0.9973233720817164,453.2,203.8)" class="waiting"/></g><g model-id="6a3ef60f-947f-40f2-b900-6fd6f1ae423d" data-type="DependencyLink" id="j_64" class="joint-cell joint-type-dependencylink joint-link joint-theme-default waiting"><path joint-selector="connection-wrap" class="c-connection-wrap waiting" id="v-369" fill="none" stroke="rgba(190, 190, 190, 0)" stroke-linecap="round" stroke-width="30" d="M 402.25 386 L 315.28 200.5"/><path joint-selector="line" id="v-368" fill="none" stroke="black" stroke-width="1" d="M 402.25 386 L 315.28 200.5" class="waiting"/><path joint-selector="label" id="v-370" d="m 0,-10 l 0,20 4,0 c 10,0, 10 -20, 0,-20 l -4,0" fill="white" stroke="black" stroke-width="2" transform="matrix(-0.4245014373956128,-0.905427263588334,0.905427263588334,-0.4245014373956128,358.8,293.3)" class="waiting"/></g><g model-id="79f98f31-777c-4831-b7f6-f14d07bb40df" data-type="DependencyLink" id="j_62" class="joint-cell joint-type-dependencylink joint-link joint-theme-default waiting"><path joint-selector="connection-wrap" id="v-358" fill="none" stroke="rgba(190, 190, 190, 0)" stroke-linecap="round" stroke-width="30" d="M 948.66 181.12 L 659 211.77" class="c-connection-wrap waiting"/><path joint-selector="line" id="v-357" fill="none" stroke="black" stroke-width="1" d="M 948.66 181.12 L 659 211.77" class="waiting"/><path joint-selector="label" id="v-359" d="m 0,-10 l 0,20 4,0 c 10,0, 10 -20, 0,-20 l -4,0" fill="white" stroke="black" stroke-width="2" transform="matrix(-0.9944482983896658,0.105226336199158,-0.105226336199158,-0.9944482983896658,803.8,196.4)" class="waiting"/></g><g model-id="70604f77-175e-49fa-b5de-bf37c4eb7111" data-type="DependencyLink" id="j_61" class="joint-cell joint-type-dependencylink joint-link joint-theme-default waiting"><path joint-selector="connection-wrap" class="c-connection-wrap waiting" id="v-355" fill="none" stroke="rgba(190, 190, 190, 0)" stroke-linecap="round" stroke-width="30" d="M 874.29 387 L 960.97 186.5"/><path joint-selector="line" id="v-354" fill="none" stroke="black" stroke-width="1" d="M 874.29 387 L 960.97 186.5" class="waiting"/><path joint-selector="label" id="v-356" d="m 0,-10 l 0,20 4,0 c 10,0, 10 -20, 0,-20 l -4,0" fill="white" stroke="black" stroke-width="2" transform="matrix(0.39682367667130997,-0.9178948576133672,0.9178948576133672,0.39682367667130997,917.6,286.8)" class="waiting"/></g><g model-id="e077b47b-c616-4230-9641-f778e93a2d69" data-type="DependencyLink" id="j_59" class="joint-cell joint-type-dependencylink joint-link joint-theme-default waiting"><path joint-selector="connection-wrap" id="v-344" fill="none" stroke="rgba(190, 190, 190, 0)" stroke-linecap="round" stroke-width="30" d="M 659 223.41 L 742.61 238.91" class="c-connection-wrap waiting"/><path joint-selector="line" id="v-343" fill="none" stroke="black" stroke-width="1" d="M 659 223.41 L 742.61 238.91" class="waiting"/><path joint-selector="label" id="v-345" d="m 0,-10 l 0,20 4,0 c 10,0, 10 -20, 0,-20 l -4,0" fill="white" stroke="black" stroke-width="2" transform="matrix(0.9832468927244444,0.18227876439049298,-0.18227876439049298,0.9832468927244444,700.8,231.2)" class="waiting"/></g><g model-id="90d10e61-2c8e-4b61-9f82-752ef9c3c90d" data-type="DependencyLink" id="j_58" class="joint-cell joint-type-dependencylink joint-link joint-theme-default waiting"><path joint-selector="connection-wrap" class="c-connection-wrap waiting" id="v-341" fill="none" stroke="rgba(190, 190, 190, 0)" stroke-linecap="round" stroke-width="30" d="M 802.02 267.7 L 843.19 387"/><path joint-selector="line" id="v-340" fill="none" stroke="black" stroke-width="1" d="M 802.02 267.7 L 843.19 387" class="waiting"/><path joint-selector="label" id="v-342" d="m 0,-10 l 0,20 4,0 c 10,0, 10 -20, 0,-20 l -4,0" fill="white" stroke="black" stroke-width="2" transform="matrix(0.3262177391719934,0.9452946559933115,-0.9452946559933115,0.3262177391719934,822.6,327.4)" class="waiting"/></g><g model-id="96188ecb-a1f8-4b9b-9569-f0aec085f905" data-type="DependencyLink" id="j_56" class="joint-cell joint-type-dependencylink joint-link joint-theme-default waiting"><path joint-selector="connection-wrap" id="v-330" fill="none" stroke="rgba(190, 190, 190, 0)" stroke-linecap="round" stroke-width="30" d="M 648.34 520.62 L 817 444.95" class="c-connection-wrap waiting"/><path joint-selector="line" id="v-329" fill="none" stroke="black" stroke-width="1" d="M 648.34 520.62 L 817 444.95" class="waiting"/><path joint-selector="label" id="v-331" d="m 0,-10 l 0,20 4,0 c 10,0, 10 -20, 0,-20 l -4,0" fill="white" stroke="black" stroke-width="2" transform="matrix(0.9123805403184627,-0.4093430708442369,0.4093430708442369,0.9123805403184627,732.7,482.8)" class="waiting"/></g><g model-id="3261243f-8f0e-4949-bcc3-804b602dea3e" data-type="DependencyLink" id="j_55" class="joint-cell joint-type-dependencylink joint-link joint-theme-default waiting"><path joint-selector="connection-wrap" class="c-connection-wrap waiting" id="v-327" fill="none" stroke="rgba(190, 190, 190, 0)" stroke-linecap="round" stroke-width="30" d="M 461 445.15 L 618.38 520.5"/><path joint-selector="line" id="v-326" fill="none" stroke="black" stroke-width="1" d="M 461 445.15 L 618.38 520.5" class="waiting"/><path joint-selector="label" id="v-328" d="m 0,-10 l 0,20 4,0 c 10,0, 10 -20, 0,-20 l -4,0" fill="white" stroke="black" stroke-width="2" transform="matrix(0.9019527813393717,0.4318346677076443,-0.4318346677076443,0.9019527813393717,539.7,482.8)" class="waiting"/></g><g model-id="55ce799f-b4f8-44af-b505-316801038dc7" data-type="DependencyLink" id="j_53" class="joint-cell joint-type-dependencylink joint-link joint-theme-default waiting"><path joint-selector="connection-wrap" id="v-316" fill="none" stroke="rgba(190, 190, 190, 0)" stroke-linecap="round" stroke-width="30" d="M 601.23 464.5 L 461 434.54" class="c-connection-wrap waiting"/><path joint-selector="line" id="v-315" fill="none" stroke="black" stroke-width="1" d="M 601.23 464.5 L 461 434.54" class="waiting"/><path joint-selector="label" id="v-317" d="m 0,-10 l 0,20 4,0 c 10,0, 10 -20, 0,-20 l -4,0" fill="white" stroke="black" stroke-width="2" transform="matrix(-0.9779297938752386,-0.20893376522509102,0.20893376522509102,-0.9779297938752386,531.1,449.5)" class="waiting"/></g><g model-id="b3590845-f1da-45c3-8754-d0ef13c969b0" data-type="DependencyLink" id="j_52" class="joint-cell joint-type-dependencylink joint-link joint-theme-default waiting"><path joint-selector="connection-wrap" class="c-connection-wrap waiting" id="v-313" fill="none" stroke="transparent" stroke-linecap="round" stroke-width="20" d="M 817 434.98 L 669.08 464.5"/><path joint-selector="line" id="v-312" fill="none" stroke="black" stroke-width="1" d="M 817 434.98 L 669.08 464.5" class="waiting"/><path joint-selector="label" id="v-314" d="m 0,-10 l 0,20 4,0 c 10,0, 10 -20, 0,-20 l -4,0" fill="white" stroke="black" stroke-width="2" transform="matrix(-0.9806622106550831,0.19570801872454138,-0.19570801872454138,-0.9806622106550831,743,449.7)" class="waiting"/></g><g model-id="df46554c-65cd-4624-b2b9-764a806013eb" data-type="DependencyLink" id="j_50" class="joint-cell joint-type-dependencylink joint-link joint-theme-default waiting"><path joint-selector="connection-wrap" id="v-302" fill="none" stroke="rgba(190, 190, 190, 0)" stroke-linecap="round" stroke-width="30" d="M 817 423.61 L 659.85 410.31" class="c-connection-wrap waiting"/><path joint-selector="line" id="v-301" fill="none" stroke="black" stroke-width="1" d="M 817 423.61 L 659.85 410.31" class="waiting"/><path joint-selector="label" id="v-303" d="m 0,-10 l 0,20 4,0 c 10,0, 10 -20, 0,-20 l -4,0" fill="white" stroke="black" stroke-width="2" transform="matrix(-0.9964377979492206,-0.08433098373734373,0.08433098373734373,-0.9964377979492206,738.4,417)" class="waiting"/></g><g model-id="9d6e9187-f970-412e-bb30-855df6ab0159" data-type="DependencyLink" id="j_49" class="joint-cell joint-type-dependencylink joint-link joint-theme-default waiting"><path joint-selector="connection-wrap" class="c-connection-wrap waiting" id="v-299" fill="none" stroke="transparent" stroke-linecap="round" stroke-width="20" d="M 605.15 410.33 L 461 422.6"/><path joint-selector="line" id="v-298" fill="none" stroke="black" stroke-width="1" d="M 605.15 410.33 L 461 422.6" class="waiting"/><path joint-selector="label" id="v-300" d="m 0,-10 l 0,20 4,0 c 10,0, 10 -20, 0,-20 l -4,0" fill="white" stroke="black" stroke-width="2" transform="matrix(-0.996396896420179,0.08481288112212085,-0.08481288112212085,-0.996396896420179,533.1,416.5)" class="waiting"/></g><g model-id="c974a530-c996-450b-9f38-e9b6376018a5" data-type="DependencyLink" id="j_47" class="joint-cell joint-type-dependencylink joint-link joint-theme-default waiting"><path joint-selector="connection-wrap" id="v-288" fill="none" stroke="rgba(190, 190, 190, 0)" stroke-linecap="round" stroke-width="30" d="M 659 197.23 L 938.59 66" class="c-connection-wrap waiting"/><path joint-selector="line" id="v-287" fill="none" stroke="black" stroke-width="1" d="M 659 197.23 L 938.59 66" class="waiting"/><path joint-selector="label" id="v-289" d="m 0,-10 l 0,20 4,0 c 10,0, 10 -20, 0,-20 l -4,0" fill="white" stroke="black" stroke-width="2" transform="matrix(0.9052444884054855,-0.4248910639346169,0.4248910639346169,0.9052444884054855,798.8,131.6)" class="waiting"/></g><g model-id="feb37e2b-cfd0-479e-a0aa-cc5ebb2c5864" data-type="DependencyLink" id="j_46" class="joint-cell joint-type-dependencylink joint-link joint-theme-default waiting"><path joint-selector="connection-wrap" class="c-connection-wrap waiting" id="v-285" fill="none" stroke="rgba(190, 190, 190, 0)" stroke-linecap="round" stroke-width="30" d="M 950.2 66 C 922.9924999999998 112.75 895.785 159.5 881 213 C 866.215 266.5 863.8525 326.75 861.49 387"/><path joint-selector="line" id="v-284" fill="none" stroke="black" stroke-width="1" d="M 950.2 66 C 922.9924999999998 112.75 895.785 159.5 881 213 C 866.215 266.5 863.8525 326.75 861.49 387" class="waiting"/><path joint-selector="label" id="v-286" d="m 0,-10 l 0,20 4,0 c 10,0, 10 -20, 0,-20 l -4,0" fill="white" stroke="black" stroke-width="2" transform="matrix(-0.24898293197567817,0.9685078727531309,-0.9685078727531309,-0.24898293197567817,879.4,219)" class="waiting"/></g><g model-id="ec5402b8-5ec7-4e4a-a72b-3ee95423b959" data-type="DependencyLink" id="j_44" class="joint-cell joint-type-dependencylink joint-link joint-theme-default waiting"><path joint-selector="connection-wrap" class="c-connection-wrap waiting" id="v-274" fill="none" stroke="rgba(190, 190, 190, 0)" stroke-linecap="round" stroke-width="30" d="M 579 193.57 L 338.98 59"/><path joint-selector="line" id="v-273" fill="none" stroke="black" stroke-width="1" d="M 579 193.57 L 338.98 59" class="waiting"/><path joint-selector="label" id="v-275" d="m 0,-10 l 0,20 4,0 c 10,0, 10 -20, 0,-20 l -4,0" fill="white" stroke="black" stroke-width="2" transform="matrix(-0.8722598536070866,-0.4890426850340816,0.4890426850340816,-0.8722598536070866,459,126.3)" class="waiting"/></g><g model-id="276af67d-ab32-4b42-905a-a522ec03985d" data-type="DependencyLink" id="j_43" class="joint-cell joint-type-dependencylink joint-link joint-theme-default waiting"><path joint-selector="connection-wrap" class="c-connection-wrap waiting" id="v-271" fill="none" stroke="rgba(190, 190, 190, 0)" stroke-linecap="round" stroke-width="30" d="M 329.47 59 C 365.69000000000005 134.75 401.91 210.5 417 265 C 432.09 319.5 426.04999999999995 352.75 420.01 386"/><path joint-selector="line" id="v-270" fill="none" stroke="black" stroke-width="1" d="M 329.47 59 C 365.69000000000005 134.75 401.91 210.5 417 265 C 432.09 319.5 426.04999999999995 352.75 420.01 386" class="waiting"/><path joint-selector="label" id="v-272" d="m 0,-10 l 0,20 4,0 c 10,0, 10 -20, 0,-20 l -4,0" fill="white" stroke="black" stroke-width="2" transform="matrix(0.36114439827355743,0.9325099053605973,-0.9325099053605973,0.36114439827355743,400.6,216.7)" class="waiting"/></g><g model-id="007d702f-278e-47c8-9519-62181ceff23b" data-type="DependencyLink" id="j_41" class="joint-cell joint-type-dependencylink joint-link joint-theme-default waiting"><path joint-selector="connection-wrap" class="c-connection-wrap waiting" id="v-260" fill="none" stroke="rgba(190, 190, 190, 0)" stroke-linecap="round" stroke-width="30" d="M 461 410.02 L 612.48 349.5"/><path joint-selector="line" id="v-259" fill="none" stroke="black" stroke-width="1" d="M 461 410.02 L 612.48 349.5" class="waiting"/><path joint-selector="label" id="v-261" d="m 0,-10 l 0,20 4,0 c 10,0, 10 -20, 0,-20 l -4,0" fill="white" stroke="black" stroke-width="2" transform="matrix(0.9286288482651418,-0.37101005669625226,0.37101005669625226,0.9286288482651418,536.7,379.8)" class="waiting"/></g><g model-id="b7f818d4-be06-42b7-aa69-a41f96351cdc" data-type="DependencyLink" id="j_40" class="joint-cell joint-type-dependencylink joint-link joint-theme-default waiting"><path joint-selector="connection-wrap" class="c-connection-wrap waiting" id="v-257" fill="none" stroke="transparent" stroke-linecap="round" stroke-width="20" d="M 648.8 349.5 L 817 412.11"/><path joint-selector="line" id="v-256" fill="none" stroke="black" stroke-width="1" d="M 648.8 349.5 L 817 412.11" class="waiting"/><path joint-selector="label" id="v-258" d="m 0,-10 l 0,20 4,0 c 10,0, 10 -20, 0,-20 l -4,0" fill="white" stroke="black" stroke-width="2" transform="matrix(0.9371782240036344,0.3488509372975707,-0.3488509372975707,0.9371782240036344,732.9,380.8)" class="waiting"/></g><g model-id="682ddd24-1841-423e-891b-d4c53095f6db" data-type="Goal" id="j_39" class="joint-cell joint-type-goal joint-element joint-theme-default waiting" fill="#ffffff" stroke="none" transform="translate(585,325)"><g class="scalable waiting" transform="scale(0.6923076923076923,1.1666666666666667)"><rect class="element waiting" id="v-248" fill="#FA8722" height="30" rx="20" stroke="black" stroke-width="2" vector-effect="non-scaling-stroke" width="130"/></g><text class="content waiting" id="v-249" font-size="12" xml:space="preserve" y="0.8em" font-weight="bold" fill="#000000" text-anchor="middle" font-family="Arial, helvetica, sans-serif" transform="matrix(1,0,0,1,45,11.9)"><tspan dy="0" class="v-line waiting">devolver item</tspan></text></g><g model-id="f2749f9d-3873-49ad-891f-8a0d6df45b55" data-type="Task" id="j_42" class="joint-cell joint-type-task joint-element joint-theme-default waiting" fill="#ffffff" stroke="none" transform="translate(279,34)"><g class="scalable waiting" transform="scale(0.7307692307692307,1)"><polygon class="element waiting" id="v-262" fill="#906EFA" height="36" points="0,18 15,0 115,0 130,18 115,36 15,36" stroke="black" stroke-width="2" vector-effect="non-scaling-stroke" width="130"/></g><text class="content waiting" id="v-263" font-size="12" xml:space="preserve" y="0.8em" font-weight="bold" text-anchor="middle" fill="#000000" font-family="Arial, helvetica, sans-serif" transform="matrix(1,0,0,1,47.5,12.4)"><tspan dy="0" class="v-line waiting">mandar email</tspan></text></g><g model-id="f0cd049a-4340-4fa4-882b-d149238637d8" data-type="Task" id="j_45" class="joint-cell joint-type-task joint-element joint-theme-default waiting" fill="#ffffff" stroke="none" transform="translate(906,41)"><g class="scalable waiting" transform="scale(0.7307692307692307,1)"><polygon class="element waiting" id="v-276" fill="#906EFA" height="36" points="0,18 15,0 115,0 130,18 115,36 15,36" stroke="black" stroke-width="2" vector-effect="non-scaling-stroke" width="130"/></g><text class="content waiting" id="v-277" font-size="12" xml:space="preserve" y="0.8em" font-weight="bold" text-anchor="middle" fill="#000000" font-family="Arial, helvetica, sans-serif" transform="matrix(1,0,0,1,47.5,12.4)"><tspan dy="0" class="v-line waiting">mandar email</tspan></text></g><g model-id="61c28712-5645-4d87-9bd1-aa0eea5ebf50" data-type="Task" id="j_48" class="joint-cell joint-type-task joint-element joint-theme-default waiting" fill="#ffffff" stroke="none" transform="translate(585,390)"><g class="scalable waiting" transform="scale(0.7307692307692307,1)"><polygon class="element waiting" id="v-290" fill="#906EFA" height="36" points="0,18 15,0 115,0 130,18 115,36 15,36" stroke="black" stroke-width="2" vector-effect="non-scaling-stroke" width="130"/></g><text class="content waiting" id="v-291" font-size="12" xml:space="preserve" y="0.8em" font-weight="bold" text-anchor="middle" fill="#000000" font-family="Arial, helvetica, sans-serif" transform="matrix(1,0,0,1,47.5,6.4)"><tspan dy="0" class="v-line waiting">entrar em</tspan><tspan dy="1em" x="0" class="v-line waiting">contato</tspan></text></g><g model-id="b929245d-79fe-4e94-a19a-d3b93ab4d09b" data-type="Resource" id="j_51" class="joint-cell joint-type-resource joint-element joint-theme-default waiting" fill="#ffffff" stroke="none" transform="translate(589,454)"><g class="scalable waiting" transform="scale(0.6923076923076923,1.1666666666666667)"><rect class="element waiting" id="v-304" fill="#FAE408" height="30" rx="0" stroke="black" stroke-width="2" vector-effect="non-scaling-stroke" width="130"/></g><text class="content waiting" id="v-305" font-size="12" xml:space="preserve" y="0.8em" font-weight="bold" fill="#000000" text-anchor="middle" font-family="Arial, helvetica, sans-serif" transform="matrix(1,0,0,1,45,11.9)"><tspan dy="0" class="v-line waiting">item perdido</tspan></text></g><g model-id="39f5ef0c-6464-4df3-8c2b-26efe482edce" data-type="Resource" id="j_54" class="joint-cell joint-type-resource joint-element joint-theme-default waiting" fill="#ffffff" stroke="none" transform="translate(588,510)"><g class="scalable waiting" transform="scale(0.6923076923076923,1.1666666666666667)"><rect class="element waiting" id="v-318" fill="#FAE408" height="30" rx="0" stroke="black" stroke-width="2" vector-effect="non-scaling-stroke" width="130"/></g><text class="content waiting" id="v-319" font-size="12" xml:space="preserve" y="0.8em" font-weight="bold" fill="#000000" text-anchor="middle" font-family="Arial, helvetica, sans-serif" transform="matrix(1,0,0,1,45,11.9)"><tspan dy="0" class="v-line waiting">email</tspan></text></g><g model-id="37b2d353-9600-4880-813a-4e3c68a1bffd" data-type="Quality" id="j_57" class="joint-cell joint-type-quality joint-element joint-theme-default waiting" fill="#ffffff" stroke="none" transform="translate(729,208)"><g class="scalable waiting" transform="scale(1.1583651233288428,1.655582048090013)"><path class="element waiting" id="v-332" d="m 60.637955,-4.0358 c 17.5174,2.2042 29.9953,-10.69554 41.892705,-4.7858 22.34142,10.8714 11.2203,43.7743 -2.25,47.7322 -8.276505,2.9084 -13.960205,5.1934 -46.142805,-2.1786 -6.7454,-2.2317 -28.2652,6.0799 -35.4643,4.7143 C 9.072156,39.4809 6.491756,33.7693 3.744956,28.482 c -6.3069,-15.1266 -2.5738,-28.0439 7.981099,-34.7856 10.5549,-6.74179 27.9316,-7.30796 48.9119,2.2678 z" fill="#79E9FA" stroke="black" stroke-width="2" vector-effect="non-scaling-stroke" transform="matrix(1,0,0,1,-0.7,11.3)"/></g><text class="content waiting" id="v-333" font-size="12" xml:space="preserve" y="0.8em" font-weight="bold" text-anchor="middle" fill="#000000" font-family="Arial, helvetica, sans-serif" transform="matrix(1,0,0,1,66.3,23.1)"><tspan dy="0" class="v-line waiting">mandar o email de</tspan><tspan dy="1em" x="0" class="v-line waiting">achado o mais</tspan><tspan dy="1em" x="0" class="v-line waiting">rápido possível</tspan></text></g><g model-id="f10aeb88-8d50-4756-a613-e6a253678a56" data-type="Resource" id="j_60" class="joint-cell joint-type-resource joint-element joint-theme-default waiting" fill="#ffffff" stroke="none" transform="translate(919,162)"><g class="scalable waiting" transform="scale(0.6923076923076923,1.1666666666666667)"><rect class="element waiting" id="v-346" fill="#FAE408" height="30" rx="0" stroke="black" stroke-width="2" vector-effect="non-scaling-stroke" width="130"/></g><text class="content waiting" id="v-347" font-size="12" xml:space="preserve" y="0.8em" font-weight="bold" fill="#000000" text-anchor="middle" font-family="Arial, helvetica, sans-serif" transform="matrix(1,0,0,1,45,11.9)"><tspan dy="0" class="v-line waiting">email</tspan></text></g><g model-id="796fc050-d817-4515-a59c-1da621ec9ee6" data-type="Resource" id="j_63" class="joint-cell joint-type-resource joint-element joint-theme-default waiting" fill="#ffffff" stroke="none" transform="translate(267,176)"><g class="scalable waiting" transform="scale(0.6923076923076923,1.1666666666666667)"><rect class="element waiting" id="v-360" fill="#FAE408" height="30" rx="0" stroke="black" stroke-width="2" vector-effect="non-scaling-stroke" width="130"/></g><text class="content waiting" id="v-361" font-size="12" xml:space="preserve" y="0.8em" font-weight="bold" fill="#000000" text-anchor="middle" font-family="Arial, helvetica, sans-serif" transform="matrix(1,0,0,1,45,11.9)"><tspan dy="0" class="v-line waiting">email</tspan></text></g><g model-id="9ff7b968-5499-476b-81da-7e4ff2998119" data-type="Task" id="j_66" class="joint-cell joint-type-task joint-element joint-theme-default waiting" fill="#ffffff" stroke="none" transform="translate(589,569)"><g class="scalable waiting" transform="scale(0.7307692307692307,1)"><polygon class="element waiting" id="v-374" fill="#906EFA" height="36" points="0,18 15,0 115,0 130,18 115,36 15,36" stroke="black" stroke-width="2" vector-effect="non-scaling-stroke" width="130"/></g><text class="content waiting" id="v-375" font-size="12" xml:space="preserve" y="0.8em" font-weight="bold" text-anchor="middle" fill="#000000" font-family="Arial, helvetica, sans-serif" transform="matrix(1,0,0,1,47.5,6.4)"><tspan dy="0" class="v-line waiting">guardar item</tspan><tspan dy="1em" x="0" class="v-line waiting">perdido</tspan></text></g><g model-id="b16bb0e6-8427-4339-a355-e3884e84c154" data-type="Quality" id="j_69" class="joint-cell joint-type-quality joint-element joint-theme-default waiting" fill="#ffffff" stroke="none" transform="translate(414,213)"><g class="scalable waiting" transform="scale(1.0798227153693947,1.4479449297842437)"><path class="element waiting" id="v-388" d="m 60.637955,-4.0358 c 17.5174,2.2042 29.9953,-10.69554 41.892705,-4.7858 22.34142,10.8714 11.2203,43.7743 -2.25,47.7322 -8.276505,2.9084 -13.960205,5.1934 -46.142805,-2.1786 -6.7454,-2.2317 -28.2652,6.0799 -35.4643,4.7143 C 9.072156,39.4809 6.491756,33.7693 3.744956,28.482 c -6.3069,-15.1266 -2.5738,-28.0439 7.981099,-34.7856 10.5549,-6.74179 27.9316,-7.30796 48.9119,2.2678 z" fill="#79E9FA" stroke="black" stroke-width="2" vector-effect="non-scaling-stroke" transform="matrix(1,0,0,1,-0.7,11.3)"/></g><text class="content waiting" id="v-389" font-size="12" xml:space="preserve" y="0.8em" font-weight="bold" text-anchor="middle" fill="#000000" font-family="Arial, helvetica, sans-serif" transform="matrix(1,0,0,1,61.8,19.2)"><tspan dy="0" class="v-line waiting">mandar o email de</tspan><tspan dy="1em" x="0" class="v-line waiting">perdido o mais</tspan><tspan dy="1em" x="0" class="v-line waiting">rápido possível</tspan></text></g><g model-id="7f260957-b4ea-4627-9799-9b0eeaecb3d9" data-type="Task" id="j_72" class="joint-cell joint-type-task joint-element joint-theme-default waiting" fill="#ffffff" stroke="none" transform="translate(231,100)"><g class="scalable waiting" transform="scale(0.7307692307692307,1)"><polygon class="element waiting" id="v-402" fill="#906EFA" height="36" points="0,18 15,0 115,0 130,18 115,36 15,36" stroke="black" stroke-width="2" vector-effect="non-scaling-stroke" width="130"/></g><text class="content waiting" id="v-403" font-size="12" xml:space="preserve" y="0.8em" font-weight="bold" text-anchor="middle" fill="#000000" font-family="Arial, helvetica, sans-serif" transform="matrix(1,0,0,1,47.5,6.4)"><tspan dy="0" class="v-line waiting">verificar caixa</tspan><tspan dy="1em" x="0" class="v-line waiting">de entrada</tspan></text></g><g model-id="3b3d57b3-0330-4b19-b4e4-3944053db4df" data-type="Quality" id="j_75" class="joint-cell joint-type-quality joint-element joint-theme-default waiting" fill="#ffffff" stroke="none" transform="translate(575,635)"><g class="scalable waiting" transform="scale(1.123460344921279,1.6555846400836005)"><path class="element waiting" id="v-416" d="m 60.637955,-4.0358 c 17.5174,2.2042 29.9953,-10.69554 41.892705,-4.7858 22.34142,10.8714 11.2203,43.7743 -2.25,47.7322 -8.276505,2.9084 -13.960205,5.1934 -46.142805,-2.1786 -6.7454,-2.2317 -28.2652,6.0799 -35.4643,4.7143 C 9.072156,39.4809 6.491756,33.7693 3.744956,28.482 c -6.3069,-15.1266 -2.5738,-28.0439 7.981099,-34.7856 10.5549,-6.74179 27.9316,-7.30796 48.9119,2.2678 z" fill="#79E9FA" stroke="black" stroke-width="2" vector-effect="non-scaling-stroke" transform="matrix(1,0,0,1,-0.7,11.3)"/></g><text class="content waiting" id="v-417" font-size="12" xml:space="preserve" y="0.8em" font-weight="bold" text-anchor="middle" fill="#000000" font-family="Arial, helvetica, sans-serif" transform="matrix(1,0,0,1,64.3,29.1)"><tspan dy="0" class="v-line waiting">entrar em contato</tspan><tspan dy="1em" x="0" class="v-line waiting">mais rápido possível</tspan></text></g><g model-id="bcc19ab1-700e-48ec-8329-b0fd6d304fb4" data-type="ParticipatesInLink" id="j_78" class="joint-cell joint-type-participatesinlink joint-link joint-theme-default waiting"><path joint-selector="connection-wrap" id="v-431" fill="none" stroke="rgba(190, 190, 190, 0)" stroke-linecap="round" stroke-width="30" d="M 581.29 256 L 458.71 386" class="c-connection-wrap waiting"/><path joint-selector="line" id="v-430" fill="none" stroke="black" stroke-width="1" d="M 581.29 256 L 458.71 386" marker-end="url(#v-21429980022)" class="waiting"/><text joint-selector="label-background" id="v-433" font-size="13" xml:space="preserve" y="4" font-weight="400" stroke="white" stroke-width="0.35em" x="-40" transform="matrix(-0.6860383433324054,0.7275653863933664,-0.7275653863933664,-0.6860383433324054,520,321)" class="waiting"><tspan dy="0" class="v-line waiting">participates-in</tspan></text><text joint-selector="label" id="v-432" font-size="13" xml:space="preserve" y="4" font-weight="400" x="-40" transform="matrix(-0.6860383433324054,0.7275653863933664,-0.7275653863933664,-0.6860383433324054,520,321)" class="waiting"><tspan dy="0" class="v-line waiting">participates-in</tspan></text></g><g model-id="72dbd04e-c616-426e-89b3-cad3513e35b0" data-type="ParticipatesInLink" id="j_79" class="joint-cell joint-type-participatesinlink joint-link joint-theme-default waiting"><path joint-selector="connection-wrap" id="v-435" fill="none" stroke="rgba(190, 190, 190, 0)" stroke-linecap="round" stroke-width="30" d="M 659 251.46 L 817 391.54" class="c-connection-wrap waiting"/><path joint-selector="line" id="v-434" fill="none" stroke="black" stroke-width="1" d="M 659 251.46 L 817 391.54" marker-end="url(#v-21429980022)" class="waiting"/><text joint-selector="label-background" id="v-437" font-size="13" xml:space="preserve" y="4" font-weight="400" stroke="white" stroke-width="0.35em" x="-40" transform="matrix(0.7482657287881391,0.6633991250530521,-0.6633991250530521,0.7482657287881391,738,321.5)" class="waiting"><tspan dy="0" class="v-line waiting">participates-in</tspan></text><text joint-selector="label" id="v-436" font-size="13" xml:space="preserve" y="4" font-weight="400" x="-40" transform="matrix(0.7482657287881391,0.6633991250530521,-0.6633991250530521,0.7482657287881391,738,321.5)" class="waiting"><tspan dy="0" class="v-line waiting">participates-in</tspan></text></g></g><g joint-selector="front" class="joint-front-layer waiting"/><g joint-selector="tools" class="joint-tools-layer waiting"><g class="joint-tools joint-theme-default waiting"><g class="joint-tool joint-theme-default waiting" data-tool-name="vertices" model-id="b7f818d4-be06-42b7-aa69-a41f96351cdc" style="display: none;"><path fill="none" stroke="transparent" stroke-width="10" cursor="cell" joint-selector="connection" d="M 817 412.11 L 648.8 349.5" class="joint-vertices-path waiting"/></g></g><g class="joint-tools joint-theme-default waiting"><g class="joint-tool joint-theme-default waiting" data-tool-name="vertices" model-id="007d702f-278e-47c8-9519-62181ceff23b" style="display: none;"><path fill="none" stroke="transparent" stroke-width="10" cursor="cell" joint-selector="connection" d="M 461 410.02 L 612.48 349.5" class="joint-vertices-path waiting"/></g></g><g class="joint-tools joint-theme-default waiting"><g class="joint-tool joint-theme-default waiting" data-tool-name="vertices" model-id="276af67d-ab32-4b42-905a-a522ec03985d" style="display: none;"><path fill="none" stroke="transparent" stroke-width="10" cursor="cell" joint-selector="connection" d="M 329.47 59 C 365.69000000000005 134.75 401.91 210.5 417 265 C 432.09 319.5 426.04999999999995 352.75 420.01 386" class="joint-vertices-path waiting"/><circle r="6" fill="#33334F" stroke="#FFFFFF" stroke-width="2" cursor="move" class="joint-marker-vertex joint-theme-default waiting" cx="417" cy="265" model-id="276af67d-ab32-4b42-905a-a522ec03985d"/></g></g><g class="joint-tools joint-theme-default waiting"><g class="joint-tool joint-theme-default waiting" data-tool-name="vertices" model-id="ec5402b8-5ec7-4e4a-a72b-3ee95423b959" style="display: none;"><path fill="none" stroke="transparent" stroke-width="10" cursor="cell" joint-selector="connection" d="M 338.98 59 L 579 193.57" class="joint-vertices-path waiting"/></g></g><g class="joint-tools joint-theme-default waiting"><g class="joint-tool joint-theme-default waiting" data-tool-name="vertices" model-id="feb37e2b-cfd0-479e-a0aa-cc5ebb2c5864" style="display: none;"><path fill="none" stroke="transparent" stroke-width="10" cursor="cell" joint-selector="connection" d="M 950.2 66 C 922.9924999999998 112.75 895.785 159.5 881 213 C 866.215 266.5 863.8525 326.75 861.49 387" class="joint-vertices-path waiting"/><circle r="6" fill="#33334F" stroke="#FFFFFF" stroke-width="2" cursor="move" class="joint-marker-vertex joint-theme-default waiting" cx="881" cy="213" model-id="feb37e2b-cfd0-479e-a0aa-cc5ebb2c5864"/></g></g><g class="joint-tools joint-theme-default waiting"><g class="joint-tool joint-theme-default waiting" data-tool-name="vertices" model-id="c974a530-c996-450b-9f38-e9b6376018a5" style="display: none;"><path fill="none" stroke="transparent" stroke-width="10" cursor="cell" joint-selector="connection" d="M 659 197.23 L 938.59 66" class="joint-vertices-path waiting"/></g></g><g class="joint-tools joint-theme-default waiting"><g class="joint-tool joint-theme-default waiting" data-tool-name="vertices" model-id="9d6e9187-f970-412e-bb30-855df6ab0159" style="display: none;"><path fill="none" stroke="transparent" stroke-width="10" cursor="cell" joint-selector="connection" d="M 461 422.6 L 605.15 410.33" class="joint-vertices-path waiting"/></g></g><g class="joint-tools joint-theme-default waiting"><g class="joint-tool joint-theme-default waiting" data-tool-name="vertices" model-id="df46554c-65cd-4624-b2b9-764a806013eb" style="display: none;"><path fill="none" stroke="transparent" stroke-width="10" cursor="cell" joint-selector="connection" d="M 817 423.61 L 659.85 410.31" class="joint-vertices-path waiting"/></g></g><g class="joint-tools joint-theme-default waiting"><g class="joint-tool joint-theme-default waiting" data-tool-name="vertices" model-id="b3590845-f1da-45c3-8754-d0ef13c969b0" style="display: none;"><path fill="none" stroke="transparent" stroke-width="10" cursor="cell" joint-selector="connection" d="M 817 434.98 L 669.08 464.5" class="joint-vertices-path waiting"/></g></g><g class="joint-tools joint-theme-default waiting"><g class="joint-tool joint-theme-default waiting" data-tool-name="vertices" model-id="55ce799f-b4f8-44af-b505-316801038dc7" style="display: none;"><path fill="none" stroke="transparent" stroke-width="10" cursor="cell" joint-selector="connection" d="M 601.23 464.5 L 461 434.54" class="joint-vertices-path waiting"/></g></g><g class="joint-tools joint-theme-default waiting"><g class="joint-tool joint-theme-default waiting" data-tool-name="vertices" model-id="3261243f-8f0e-4949-bcc3-804b602dea3e" style="display: none;"><path fill="none" stroke="transparent" stroke-width="10" cursor="cell" joint-selector="connection" d="M 461 445.15 L 618.38 520.5" class="joint-vertices-path waiting"/></g></g><g class="joint-tools joint-theme-default waiting"><g class="joint-tool joint-theme-default waiting" data-tool-name="vertices" model-id="96188ecb-a1f8-4b9b-9569-f0aec085f905" style="display: none;"><path fill="none" stroke="transparent" stroke-width="10" cursor="cell" joint-selector="connection" d="M 648.34 520.62 L 817 444.95" class="joint-vertices-path waiting"/></g></g><g class="joint-tools joint-theme-default waiting"><g class="joint-tool joint-theme-default waiting" data-tool-name="vertices" model-id="90d10e61-2c8e-4b61-9f82-752ef9c3c90d" style="display: none;"><path fill="none" stroke="transparent" stroke-width="10" cursor="cell" joint-selector="connection" d="M 802.02 267.7 L 843.19 387" class="joint-vertices-path waiting"/></g></g><g class="joint-tools joint-theme-default waiting"><g class="joint-tool joint-theme-default waiting" data-tool-name="vertices" model-id="e077b47b-c616-4230-9641-f778e93a2d69" style="display: none;"><path fill="none" stroke="transparent" stroke-width="10" cursor="cell" joint-selector="connection" d="M 659 223.41 L 742.61 238.91" class="joint-vertices-path waiting"/></g></g><g class="joint-tools joint-theme-default waiting"><g class="joint-tool joint-theme-default waiting" data-tool-name="vertices" model-id="70604f77-175e-49fa-b5de-bf37c4eb7111" style="display: none;"><path fill="none" stroke="transparent" stroke-width="10" cursor="cell" joint-selector="connection" d="M 874.29 387 L 960.97 186.5" class="joint-vertices-path waiting"/></g></g><g class="joint-tools joint-theme-default waiting"><g class="joint-tool joint-theme-default waiting" data-tool-name="vertices" model-id="79f98f31-777c-4831-b7f6-f14d07bb40df" style="display: none;"><path fill="none" stroke="transparent" stroke-width="10" cursor="cell" joint-selector="connection" d="M 948.66 181.12 L 659 211.77" class="joint-vertices-path waiting"/></g></g><g class="joint-tools joint-theme-default waiting"><g class="joint-tool joint-theme-default waiting" data-tool-name="vertices" model-id="6a3ef60f-947f-40f2-b900-6fd6f1ae423d" style="display: none;"><path fill="none" stroke="transparent" stroke-width="10" cursor="cell" joint-selector="connection" d="M 402.25 386 L 315.28 200.5" class="joint-vertices-path waiting"/></g></g><g class="joint-tools joint-theme-default waiting"><g class="joint-tool joint-theme-default waiting" data-tool-name="vertices" model-id="834c4a42-f83c-43ea-90db-0c0808c2e8a4" style="display: none;"><path fill="none" stroke="transparent" stroke-width="10" cursor="cell" joint-selector="connection" d="M 327.34 194.62 L 579 213.07" class="joint-vertices-path waiting"/></g></g><g class="joint-tools joint-theme-default waiting"><g class="joint-tool joint-theme-default waiting" data-tool-name="vertices" model-id="d2932dd1-423c-4591-adb4-8808dcdd35a0" style="display: none;"><path fill="none" stroke="transparent" stroke-width="10" cursor="cell" joint-selector="connection" d="M 654.42 574 L 817 456.02" class="joint-vertices-path waiting"/></g></g><g class="joint-tools joint-theme-default waiting"><g class="joint-tool joint-theme-default waiting" data-tool-name="vertices" model-id="64b7a18d-d72c-4d9b-a66a-01c31f2cb894" style="display: none;"><path fill="none" stroke="transparent" stroke-width="10" cursor="cell" joint-selector="connection" d="M 619.1 574 L 461 455.88" class="joint-vertices-path waiting"/></g></g><g class="joint-tools joint-theme-default waiting"><g class="joint-tool joint-theme-default waiting" data-tool-name="vertices" model-id="ff214186-e0e8-4fa2-8095-4dc1d950a23e" style="display: none;"><path fill="none" stroke="transparent" stroke-width="10" cursor="cell" joint-selector="connection" d="M 433.48 386 L 470.03 268.8" class="joint-vertices-path waiting"/></g></g><g class="joint-tools joint-theme-default waiting"><g class="joint-tool joint-theme-default waiting" data-tool-name="vertices" model-id="047556d4-22dd-41ec-b1a1-2e2acd6e653b" style="display: none;"><path fill="none" stroke="transparent" stroke-width="10" cursor="cell" joint-selector="connection" d="M 579 225.45 L 528.81 237.31" class="joint-vertices-path waiting"/></g></g><g class="joint-tools joint-theme-default waiting"><g class="joint-tool joint-theme-default waiting" data-tool-name="vertices" model-id="6a9d7c97-28a5-41d7-8a0d-5b1affc6105f" style="display: none;"><path fill="none" stroke="transparent" stroke-width="10" cursor="cell" joint-selector="connection" d="M 402.51 386 L 284.67 131" class="joint-vertices-path waiting"/></g></g><g class="joint-tools joint-theme-default waiting"><g class="joint-tool joint-theme-default waiting" data-tool-name="vertices" model-id="54400469-4298-4952-aeec-6d304de7fda9" style="display: none;"><path fill="none" stroke="transparent" stroke-width="10" cursor="cell" joint-selector="connection" d="M 318.86 129.57 L 579 204.48" class="joint-vertices-path waiting"/></g></g><g class="joint-tools joint-theme-default waiting"><g class="joint-tool joint-theme-default waiting" data-tool-name="vertices" model-id="5ceb634b-8b34-4653-98a0-aac1d2c6bcb7" style="display: none;"><path fill="none" stroke="transparent" stroke-width="10" cursor="cell" joint-selector="connection" d="M 455.97 466 L 627.93 662.7" class="joint-vertices-path waiting"/></g></g><g class="joint-tools joint-theme-default waiting"><g class="joint-tool joint-theme-default waiting" data-tool-name="vertices" model-id="14e72b0c-4d49-41e7-b854-2628f8094612" style="display: none;"><path fill="none" stroke="transparent" stroke-width="10" cursor="cell" joint-selector="connection" d="M 821.99 467 L 650.68 662.7" class="joint-vertices-path waiting"/></g></g><g class="joint-tools joint-theme-default waiting"><g class="joint-tool joint-theme-default waiting" data-tool-name="vertices" model-id="bcc19ab1-700e-48ec-8329-b0fd6d304fb4" style="display: none;"><path fill="none" stroke="transparent" stroke-width="10" cursor="cell" joint-selector="connection" d="M 581.29 256 L 458.71 386" class="joint-vertices-path waiting"/></g></g><g class="joint-tools joint-theme-default waiting"><g class="joint-tool joint-theme-default waiting" data-tool-name="vertices" model-id="72dbd04e-c616-426e-89b3-cad3513e35b0" style="display: none;"><path fill="none" stroke="transparent" stroke-width="10" cursor="cell" joint-selector="connection" d="M 659 251.46 L 817 391.54" class="joint-vertices-path waiting"/></g></g></g></g></svg>